<?xml version="1.0" encoding="UTF-8"?>
<!DOCTYPE svg PUBLIC "-//W3C//DTD SVG 1.1//EN" "http://www.w3.org/Graphics/SVG/1.1/DTD/svg11.dtd">
<svg xmlns="http://www.w3.org/2000/svg" version="1.1" width="500px" height="500px" style="shape-rendering:geometricPrecision; text-rendering:geometricPrecision; image-rendering:optimizeQuality; fill-rule:evenodd; clip-rule:evenodd" xmlns:xlink="http://www.w3.org/1999/xlink">
<g><path style="opacity:1" fill="#fefefe" d="M -0.5,-0.5 C 166.167,-0.5 332.833,-0.5 499.5,-0.5C 499.5,166.167 499.5,332.833 499.5,499.5C 332.833,499.5 166.167,499.5 -0.5,499.5C -0.5,332.833 -0.5,166.167 -0.5,-0.5 Z"/></g>
<g><path style="opacity:1" fill="#180a89" d="M 125.5,141.5 C 113.914,142.596 102.247,143.263 90.5,143.5C 110.564,119.443 135.564,102.276 165.5,92C 179.147,87.3374 193.147,84.3374 207.5,83C 251.795,79.9932 294.128,87.6599 334.5,106C 338.5,108.333 342.5,110.667 346.5,113C 349.969,134.78 353.302,156.613 356.5,178.5C 354.833,178.5 353.167,178.5 351.5,178.5C 346.273,156.215 334.606,138.049 316.5,124C 272.306,93.8923 224.973,87.8923 174.5,106C 155.268,113.938 138.935,125.772 125.5,141.5 Z"/></g>
<g><path style="opacity:1" fill="#fe5366" d="M 141.5,370.5 C 140.167,378.833 140.167,387.167 141.5,395.5C 141.334,402.508 141.5,409.508 142,416.5C 147,431.593 157.5,438.593 173.5,437.5C 173.5,438.833 173.5,440.167 173.5,441.5C 142.5,441.5 111.5,441.5 80.5,441.5C 80.5,440.167 80.5,438.833 80.5,437.5C 97.0182,438.495 107.852,431.162 113,415.5C 113.5,402.838 113.667,390.171 113.5,377.5C 113.5,364.833 113.5,352.167 113.5,339.5C 113.5,278.833 113.5,218.167 113.5,157.5C 111.777,156.2 109.61,155.533 107,155.5C 97.5041,156.295 88.0041,156.961 78.5,157.5C 63.1612,156.42 48.8279,159.586 35.5,167C 26.1432,174.739 22.9765,184.573 26,196.5C 30.6105,210.584 40.4439,217.584 55.5,217.5C 55.7373,218.791 55.404,219.791 54.5,220.5C 31.1852,224.663 16.6852,215.33 11,192.5C 9.63775,172.404 18.4711,158.904 37.5,152C 45.3038,149.239 53.3038,147.239 61.5,146C 71.2886,145.909 80.9552,145.076 90.5,143.5C 102.247,143.263 113.914,142.596 125.5,141.5C 141.962,140.458 158.295,138.458 174.5,135.5C 174.5,137.167 174.5,138.833 174.5,140.5C 157.517,141.664 146.683,150.331 142,166.5C 141.5,234.499 141.333,302.499 141.5,370.5 Z"/></g>
<g><path style="opacity:1" fill="#160788" d="M 113.5,157.5 C 112.5,157.833 111.833,158.5 111.5,159.5C 91.6971,191.663 83.5304,226.663 87,264.5C 89.091,283.959 94.091,302.626 102,320.5C 105.024,326.566 108.524,332.232 112.5,337.5C 112.328,338.492 112.662,339.158 113.5,339.5C 113.5,352.167 113.5,364.833 113.5,377.5C 68.1219,339.589 47.9553,290.923 53,231.5C 53.2401,227.748 53.7401,224.081 54.5,220.5C 55.404,219.791 55.7373,218.791 55.5,217.5C 56.5009,209.332 58.3342,201.332 61,193.5C 66.0597,181.049 71.893,169.049 78.5,157.5C 88.0041,156.961 97.5041,156.295 107,155.5C 109.61,155.533 111.777,156.2 113.5,157.5 Z"/></g>
<g><path style="opacity:1" fill="#fefcfd" d="M 78.5,157.5 C 71.893,169.049 66.0597,181.049 61,193.5C 58.3342,201.332 56.5009,209.332 55.5,217.5C 40.4439,217.584 30.6105,210.584 26,196.5C 22.9765,184.573 26.1432,174.739 35.5,167C 48.8279,159.586 63.1612,156.42 78.5,157.5 Z"/></g>
<g><path style="opacity:1" fill="#fedfe2" d="M 113.5,157.5 C 113.5,218.167 113.5,278.833 113.5,339.5C 112.662,339.158 112.328,338.492 112.5,337.5C 112.832,277.998 112.499,218.664 111.5,159.5C 111.833,158.5 112.5,157.833 113.5,157.5 Z"/></g>
<g><path style="opacity:1" fill="#fcfcfd" d="M 111.5,159.5 C 112.499,218.664 112.832,277.998 112.5,337.5C 108.524,332.232 105.024,326.566 102,320.5C 94.091,302.626 89.091,283.959 87,264.5C 83.5304,226.663 91.6971,191.663 111.5,159.5 Z"/></g>
<g><path style="opacity:1" fill="#22118c" d="M 390.5,310.5 C 388.768,314.697 387.435,319.031 386.5,323.5C 384.375,328.512 382.042,333.512 379.5,338.5C 377.263,334.466 375.596,330.132 374.5,325.5C 387.15,297.952 393.484,268.952 393.5,238.5C 395.167,238.5 396.833,238.5 398.5,238.5C 399.486,262.928 396.819,286.928 390.5,310.5 Z"/></g>
<g><path style="opacity:1" fill="#fe596b" d="M 374.5,325.5 C 375.596,330.132 377.263,334.466 379.5,338.5C 381.043,343.257 382.876,347.924 385,352.5C 387.041,348.916 389.208,345.416 391.5,342C 388.041,336.332 386.374,330.165 386.5,323.5C 387.435,319.031 388.768,314.697 390.5,310.5C 402.621,294.287 417.621,291.12 435.5,301C 452.829,317.693 452.829,334.359 435.5,351C 438.379,352.718 441.212,354.552 444,356.5C 444.687,358.568 444.52,360.568 443.5,362.5C 451.51,376.518 459.01,390.851 466,405.5C 466.839,408.14 466.339,410.473 464.5,412.5C 460.145,416.232 455.978,416.232 452,412.5C 444.509,397.854 437.343,383.188 430.5,368.5C 429.391,368.443 428.391,368.11 427.5,367.5C 424.913,364.315 424.913,360.982 427.5,357.5C 427.291,356.914 426.957,356.414 426.5,356C 420.471,356.741 414.471,356.574 408.5,355.5C 407.292,354.766 405.959,354.433 404.5,354.5C 400.562,351.902 396.895,348.902 393.5,345.5C 391.079,349.34 388.912,353.34 387,357.5C 385.951,358.517 384.784,358.684 383.5,358C 381.401,353.2 379.401,348.367 377.5,343.5C 375.871,338.924 373.871,334.591 371.5,330.5C 370.962,328.883 370.629,327.216 370.5,325.5C 365.156,325.666 359.823,325.499 354.5,325C 343.64,310.306 332.973,295.473 322.5,280.5C 311.679,291.489 301.012,302.655 290.5,314C 288.333,314.5 287.5,313.667 288,311.5C 299.373,299.295 310.873,287.295 322.5,275.5C 334.017,290.2 345.017,305.367 355.5,321C 361.196,321.17 366.862,321.67 372.5,322.5C 372.942,323.739 373.609,324.739 374.5,325.5 Z"/></g>
<g><path style="opacity:1" fill="#fff6f7" d="M 409.5,299.5 C 430.057,296.915 441.723,305.748 444.5,326C 444.22,337.558 438.887,345.891 428.5,351C 411.881,356.348 399.714,351.182 392,335.5C 387.952,318.597 393.785,306.597 409.5,299.5 Z"/></g>
<g><path style="opacity:1" fill="#ff5b6c" d="M 412.5,303.5 C 425.396,302.356 434.23,307.689 439,319.5C 440.714,341.12 430.881,350.287 409.5,347C 396.667,340.581 392.5,330.414 397,316.5C 400.818,310.512 405.984,306.179 412.5,303.5 Z"/></g>
<g><path style="opacity:1" fill="#fffcfc" d="M 411.5,307.5 C 423.561,305.608 431.728,310.274 436,321.5C 436.792,338.695 428.625,346.195 411.5,344C 399.733,338.036 396.233,328.87 401,316.5C 404.103,312.886 407.603,309.886 411.5,307.5 Z"/></g>
<g><path style="opacity:1" fill="#1e0d8a" d="M 335.5,311.5 C 335.167,331.511 335.5,351.511 336.5,371.5C 337.107,371.376 337.44,371.043 337.5,370.5C 338.794,369.71 339.961,368.71 341,367.5C 341.333,356.833 341.667,346.167 342,335.5C 349.754,334.353 357.587,334.186 365.5,335C 366.025,335.692 366.692,336.192 367.5,336.5C 369.326,334.853 370.66,332.853 371.5,330.5C 373.871,334.591 375.871,338.924 377.5,343.5C 374.588,348.263 371.421,352.929 368,357.5C 367.828,381.739 367.328,405.906 366.5,430C 362.448,431.101 358.281,431.601 354,431.5C 350.5,431.333 347,431.167 343.5,431C 343,430.5 342.5,430 342,429.5C 341.667,414.833 341.333,400.167 341,385.5C 339.622,387.213 337.955,388.547 336,389.5C 335.667,402.833 335.333,416.167 335,429.5C 334.5,430 334,430.5 333.5,431C 326.167,431.667 318.833,431.667 311.5,431C 311,430.5 310.5,430 310,429.5C 309.5,421.173 309.334,412.84 309.5,404.5C 307.418,404.472 305.584,405.139 304,406.5C 303.667,414.167 303.333,421.833 303,429.5C 302.5,430 302,430.5 301.5,431C 294.167,431.667 286.833,431.667 279.5,431C 279,430.5 278.5,430 278,429.5C 277.501,424.177 277.334,418.844 277.5,413.5C 230.05,422.891 184.717,416.891 141.5,395.5C 140.167,387.167 140.167,378.833 141.5,370.5C 169.597,393.201 201.93,404.201 238.5,403.5C 251.61,403.156 264.61,401.822 277.5,399.5C 277.173,379.257 277.507,359.091 278.5,339C 286.746,338.185 294.912,338.352 303,339.5C 303.5,356.497 303.667,373.497 303.5,390.5C 305.582,390.528 307.416,389.861 309,388.5C 309.333,362.167 309.667,335.833 310,309.5C 318.108,308.185 326.275,308.185 334.5,309.5C 334.863,310.183 335.196,310.85 335.5,311.5 Z"/></g>
<g><path style="opacity:1" fill="#fefefe" d="M 331.5,374.5 C 326.225,379.479 320.225,383.479 313.5,386.5C 313.5,361.833 313.5,337.167 313.5,312.5C 319.5,312.5 325.5,312.5 331.5,312.5C 331.5,333.167 331.5,353.833 331.5,374.5 Z"/></g>
<g><path style="opacity:1" fill="#9690ca" d="M 331.5,374.5 C 331.5,353.833 331.5,333.167 331.5,312.5C 325.5,312.5 319.5,312.5 313.5,312.5C 313.5,337.167 313.5,361.833 313.5,386.5C 312.502,361.672 312.169,336.672 312.5,311.5C 319.167,311.5 325.833,311.5 332.5,311.5C 332.831,332.673 332.497,353.673 331.5,374.5 Z"/></g>
<g><path style="opacity:1" fill="#dfdeef" d="M 335.5,311.5 C 336.167,331.167 336.833,350.833 337.5,370.5C 337.44,371.043 337.107,371.376 336.5,371.5C 335.5,351.511 335.167,331.511 335.5,311.5 Z"/></g>
<g><path style="opacity:1" fill="#fbf6f9" d="M 386.5,323.5 C 386.374,330.165 388.041,336.332 391.5,342C 389.208,345.416 387.041,348.916 385,352.5C 382.876,347.924 381.043,343.257 379.5,338.5C 382.042,333.512 384.375,328.512 386.5,323.5 Z"/></g>
<g><path style="opacity:1" fill="#f9f9fc" d="M 344.5,338.5 C 350.833,338.5 357.167,338.5 363.5,338.5C 363.702,340.989 363.202,343.323 362,345.5C 356.568,352.022 350.901,358.355 345,364.5C 344.5,355.84 344.334,347.173 344.5,338.5 Z"/></g>
<g><path style="opacity:1" fill="#fcfcfd" d="M 281.5,341.5 C 287.833,341.5 294.167,341.5 300.5,341.5C 300.833,358.513 300.499,375.513 299.5,392.5C 293.676,394.608 287.843,396.608 282,398.5C 281.5,379.503 281.333,360.503 281.5,341.5 Z"/></g>
<g><path style="opacity:1" fill="#ffe6e8" d="M 430.5,353.5 C 431.675,353.281 432.675,353.614 433.5,354.5C 431.948,355.798 430.948,355.465 430.5,353.5 Z"/></g>
<g><path style="opacity:1" fill="#2b198f" d="M 404.5,354.5 C 405.959,354.433 407.292,354.766 408.5,355.5C 408.5,379.5 408.5,403.5 408.5,427.5C 414.833,427.5 421.167,427.5 427.5,427.5C 427.5,407.5 427.5,387.5 427.5,367.5C 428.391,368.11 429.391,368.443 430.5,368.5C 430.667,388.836 430.5,409.169 430,429.5C 429.5,430 429,430.5 428.5,431C 421.167,431.667 413.833,431.667 406.5,431C 406,430.5 405.5,430 405,429.5C 404.5,404.502 404.333,379.502 404.5,354.5 Z"/></g>
<g><path style="opacity:1" fill="#fcfbfd" d="M 408.5,355.5 C 414.471,356.574 420.471,356.741 426.5,356C 426.957,356.414 427.291,356.914 427.5,357.5C 424.913,360.982 424.913,364.315 427.5,367.5C 427.5,387.5 427.5,407.5 427.5,427.5C 421.167,427.5 414.833,427.5 408.5,427.5C 408.5,403.5 408.5,379.5 408.5,355.5 Z"/></g>
<g><path style="opacity:1" fill="#fff1f3" d="M 437.5,356.5 C 440.423,357.163 441.09,358.83 439.5,361.5C 436.612,363.29 433.612,364.457 430.5,365C 428.993,364.163 428.493,362.996 429,361.5C 431.979,359.933 434.812,358.266 437.5,356.5 Z"/></g>
<g><path style="opacity:1" fill="#544aa8" d="M 362.5,364.5 C 362.56,363.957 362.893,363.624 363.5,363.5C 364.828,384.996 364.828,406.33 363.5,427.5C 363.831,406.327 363.497,385.327 362.5,364.5 Z"/></g>
<g><path style="opacity:1" fill="#fdfcfe" d="M 362.5,364.5 C 363.497,385.327 363.831,406.327 363.5,427.5C 357.167,427.5 350.833,427.5 344.5,427.5C 344.333,412.496 344.5,397.496 345,382.5C 351.708,377.293 357.541,371.293 362.5,364.5 Z"/></g>
<g><path style="opacity:1" fill="#fff9f9" d="M 438.5,365.5 C 440.39,365.297 441.89,365.963 443,367.5C 449.333,380.167 455.667,392.833 462,405.5C 463.033,408.217 462.2,410.051 459.5,411C 457.888,411.72 456.388,411.554 455,410.5C 447.712,396.599 441.045,382.599 435,368.5C 436.145,367.364 437.312,366.364 438.5,365.5 Z"/></g>
<g><path style="opacity:1" fill="#301f92" d="M 374.5,367.5 C 382.174,367.334 389.841,367.5 397.5,368C 398,368.5 398.5,369 399,369.5C 399.667,389.5 399.667,409.5 399,429.5C 398.5,430 398,430.5 397.5,431C 389.833,431.667 382.167,431.667 374.5,431C 374,430.5 373.5,430 373,429.5C 372.333,409.5 372.333,389.5 373,369.5C 373.717,368.956 374.217,368.289 374.5,367.5 Z"/></g>
<g><path style="opacity:1" fill="#fdfdfe" d="M 376.5,370.5 C 382.833,370.5 389.167,370.5 395.5,370.5C 395.5,389.5 395.5,408.5 395.5,427.5C 389.167,427.5 382.833,427.5 376.5,427.5C 376.5,408.5 376.5,389.5 376.5,370.5 Z"/></g>
<g><path style="opacity:1" fill="#faf9fc" d="M 330.5,393.5 C 331.495,404.654 331.828,415.988 331.5,427.5C 325.167,427.5 318.833,427.5 312.5,427.5C 312.334,419.16 312.5,410.827 313,402.5C 319.064,399.885 324.897,396.885 330.5,393.5 Z"/></g>
<g><path style="opacity:1" fill="#938dc8" d="M 330.5,393.5 C 330.56,392.957 330.893,392.624 331.5,392.5C 332.824,404.327 332.824,415.993 331.5,427.5C 331.828,415.988 331.495,404.654 330.5,393.5 Z"/></g>
<g><path style="opacity:1" fill="#f9f9fc" d="M 297.5,407.5 C 298.5,407.5 299.5,407.5 300.5,407.5C 300.5,414.167 300.5,420.833 300.5,427.5C 294.167,427.5 287.833,427.5 281.5,427.5C 281.334,422.489 281.501,417.489 282,412.5C 287.392,411.264 292.559,409.598 297.5,407.5 Z"/></g>
</svg>
